<?xml version="1.0" standalone="no"?>
<!DOCTYPE svg PUBLIC "-//W3C//DTD SVG 20010904//EN"
 "http://www.w3.org/TR/2001/REC-SVG-20010904/DTD/svg10.dtd">
<svg version="1.0" xmlns="http://www.w3.org/2000/svg"
 width="252.000000pt" height="252.000000pt" viewBox="0 0 252.000000 252.000000"
 preserveAspectRatio="xMidYMid meet">
<metadata>
Created by potrace 1.11, written by Peter Selinger 2001-2013
</metadata>
<g transform="translate(0.000000,252.000000) scale(0.100000,-0.100000)"
fill="#000000" stroke="none">
<path d="M1390 2503 c-25 -17 -60 -57 -70 -77 -3 -6 -50 -78 -104 -161 -508
-767 -709 -1072 -722 -1097 -27 -53 -1 -136 53 -169 31 -19 48 -21 234 -20
l201 1 -6 -133 c-4 -72 -9 -159 -11 -192 -9 -146 -27 -457 -27 -490 -1 -64 4
-79 41 -116 35 -36 43 -39 92 -39 37 1 61 6 76 19 18 15 198 283 418 621 68
104 282 431 374 570 93 140 104 165 96 209 -9 48 -31 77 -72 96 -30 14 -67 17
-230 17 l-195 -1 7 126 c3 69 8 146 10 172 2 25 7 87 9 136 3 50 9 135 13 190
14 186 10 267 -12 297 -39 52 -130 73 -175 41z"/>
</g>
</svg>
